0
SECTION
2
HEADER
9
$INSUNITS
70
4
9
$ACADVER
1
AC1014
9
$HANDSEED
5
FFFF
0
ENDSEC
0
SECTION
2
TABLES
0
TABLE
2
VPORT
5
8
100
AcDbSymbolTable
0
ENDTAB
0
TABLE
2
LTYPE
5
5
100
AcDbSymbolTable
0
LTYPE
5
14
100
AcDbSymbolTableRecord
100
AcDbLinetypeTableRecord
2
BYBLOCK
70
0
0
LTYPE
5
15
100
AcDbSymbolTableRecord
100
AcDbLinetypeTableRecord
2
BYLAYER
70
0
0
ENDTAB
0
TABLE
2
LAYER
5
2
100
AcDbSymbolTable
70
2
0
LAYER
5
50
100
AcDbSymbolTableRecord
100
AcDbLayerTableRecord
2
0
70
0
6
CONTINUOUS
0
ENDTAB
0
TABLE
2
STYLE
5
3
100
AcDbSymbolTable
70
1
0
STYLE
5
11
100
AcDbSymbolTableRecord
100
AcDbTextStyleTableRecord
2
STANDARD
70
0
0
ENDTAB
0
TABLE
2
VIEW
5
6
100
AcDbSymbolTable
70
0
0
ENDTAB
0
TABLE
2
UCS
5
7
100
AcDbSymbolTable
70
0
0
ENDTAB
0
TABLE
2
APPID
5
9
100
AcDbSymbolTable
70
2
0
APPID
5
12
100
AcDbSymbolTableRecord
100
AcDbRegAppTableRecord
2
ACAD
70
0
0
ENDTAB
0
TABLE
2
DIMSTYLE
5
A
100
AcDbSymbolTable
70
1
0
ENDTAB
0
TABLE
2
BLOCK_RECORD
5
1
100
AcDbSymbolTable
70
1
0
BLOCK_RECORD
5
1F
100
AcDbSymbolTableRecord
100
AcDbBlockTableRecord
2
*MODEL_SPACE
0
BLOCK_RECORD
5
1B
100
AcDbSymbolTableRecord
100
AcDbBlockTableRecord
2
*PAPER_SPACE
0
ENDTAB
0
ENDSEC
0
SECTION
2
BLOCKS
0
BLOCK
5
20
100
AcDbEntity
100
AcDbBlockBegin
2
*MODEL_SPACE
0
ENDBLK
5
21
100
AcDbEntity
100
AcDbBlockEnd
0
BLOCK
5
1C
100
AcDbEntity
100
AcDbBlockBegin
2
*PAPER_SPACE
0
ENDBLK
5
1D
100
AcDbEntity
100
AcDbBlockEnd
0
ENDSEC
0
SECTION
2
ENTITIES
0
LWPOLYLINE
5
100
100
AcDbEntity
8
0
100
AcDbPolyline
90
4
70
1
43
0.0
10
209.56438476473167
20
82.178573347176638
10
212.76438476473169
20
82.178573347176638
10
212.76438476473169
20
112.57857334717663
10
209.56438476473167
20
112.57857334717663
0
LWPOLYLINE
5
101
100
AcDbEntity
8
0
100
AcDbPolyline
90
4
70
1
43
0.0
10
209.56438476473386
20
62.378577107172219
10
209.56438476473386
20
52.378577107172219
10
212.76438476473169
20
52.378573347176598
10
212.76438476473169
20
62.378573347176598
0
LWPOLYLINE
5
102
100
AcDbEntity
8
0
100
AcDbPolyline
90
4
70
1
43
0.0
10
189.16437669035162
20
155.97857577468636
10
189.16437669035162
20
152.77857577468637
10
204.16437669035162
20
152.77857577468637
10
204.16437669035162
20
155.97857577468636
0
LWPOLYLINE
5
103
100
AcDbEntity
8
0
100
AcDbPolyline
90
4
70
1
43
0.0
10
212.76438476473169
20
142.3785733471766
10
212.76438476473169
20
132.3785733471766
10
209.56438476473386
20
132.37856958718106
10
209.56438476473386
20
142.37856958718106
0
LWPOLYLINE
5
104
100
AcDbEntity
8
0
100
AcDbPolyline
90
4
70
1
43
0.0
10
204.16437669035162
20
38.778577974726574
10
189.16437669035162
20
38.778577974726574
10
189.16437669035162
20
41.978577974726576
10
204.16437669035162
20
41.978577974726576
0
CIRCLE
5
105
100
AcDbEntity
8
0
100
AcDbCircle
10
188.66437155316157
20
180.10857577468639
30
0
40
2.500000000000008
210
0
220
0
230
1
0
LWPOLYLINE
5
106
100
AcDbEntity
8
0
100
AcDbPolyline
90
4
70
1
43
0.0
10
98.76436861596936
20
132.37856958718106
10
98.76436861596936
20
142.37856958718106
10
95.56436861597156
20
142.3785733471766
10
95.56436861597156
20
132.3785733471766
0
CIRCLE
5
107
100
AcDbEntity
8
0
100
AcDbCircle
10
119.66438182754167
20
180.10857577468639
30
0
40
2.500000000000008
210
0
220
0
230
1
0
LWPOLYLINE
5
108
100
AcDbEntity
8
0
100
AcDbPolyline
90
4
70
1
43
0.0
10
104.16437669035162
20
155.97857577468636
10
119.16437669035162
20
155.97857577468636
10
119.16437669035162
20
152.77857577468637
10
104.16437669035162
20
152.77857577468637
0
LWPOLYLINE
5
109
100
AcDbEntity
8
0
100
AcDbPolyline
90
4
70
1
43
0.0
10
169.16437669035162
20
152.77857577468637
10
139.16437669035162
20
152.77857577468637
10
139.16437669035162
20
155.97857577468636
10
169.16437669035162
20
155.97857577468636
0
LWPOLYLINE
5
110
100
AcDbEntity
8
0
100
AcDbPolyline
90
4
70
1
43
0.0
10
233.16436641597147
20
204.23857577468638
10
75.164386964731762
20
204.23857577468638
10
75.164386964731762
20
-9.4814290803331147
10
233.16436641597147
20
-9.4814290803331147
0
CIRCLE
5
111
100
AcDbEntity
8
0
100
AcDbCircle
10
119.66438182754167
20
14.648570919666888
30
0
40
2.500000000000008
210
0
220
0
230
1
0
LWPOLYLINE
5
112
100
AcDbEntity
8
0
100
AcDbPolyline
90
4
70
1
43
0.0
10
169.16437669035162
20
38.778577974726574
10
169.16437669035162
20
41.978577974726576
10
139.16437669035162
20
41.978577974726576
10
139.16437669035162
20
38.778577974726574
0
LWPOLYLINE
5
113
100
AcDbEntity
8
0
100
AcDbPolyline
90
4
70
1
43
0.0
10
95.56436861597156
20
82.178573347176638
10
95.56436861597156
20
112.57857334717663
10
98.764368615971563
20
112.57857334717663
10
98.764368615971563
20
82.178573347176638
0
LWPOLYLINE
5
114
100
AcDbEntity
8
0
100
AcDbPolyline
90
4
70
1
43
0.0
10
98.76436861596936
20
62.378577107172219
10
98.76436861596936
20
52.378577107172219
10
95.56436861597156
20
52.378573347176598
10
95.56436861597156
20
62.378573347176598
0
LWPOLYLINE
5
115
100
AcDbEntity
8
0
100
AcDbPolyline
90
4
70
1
43
0.0
10
119.16437669035162
20
38.778577974726574
10
119.16437669035162
20
41.978577974726576
10
104.16437669035162
20
41.978577974726576
10
104.16437669035162
20
38.778577974726574
0
CIRCLE
5
116
100
AcDbEntity
8
0
100
AcDbCircle
10
188.66437155316157
20
14.648570919666888
30
0
40
2.500000000000008
210
0
220
0
230
1
0
LWPOLYLINE
5
117
100
AcDbEntity
8
0
100
AcDbPolyline
90
4
70
1
43
0.0
10
174.16469113015347
20
48.378077440667695
10
159.16469113015347
20
48.378077440667681
10
159.16469113015347
20
45.178077440667678
10
174.16469113015347
20
45.178077440667678
0
LWPOLYLINE
5
118
100
AcDbEntity
8
0
100
AcDbPolyline
90
4
70
1
43
0.0
10
199.16469113015347
20
48.378077440667731
10
184.16469113015347
20
48.378077440667717
10
184.16469113015347
20
45.178077440667728
10
199.16469113015347
20
45.178077440667728
0
LWPOLYLINE
5
119
100
AcDbEntity
8
0
100
AcDbPolyline
90
4
70
1
43
0.0
10
124.16469113015346
20
45.178077440667728
10
109.16469113015346
20
45.178077440667728
10
109.16469113015346
20
48.378077440667731
10
124.16469113015346
20
48.378077440667717
0
LWPOLYLINE
5
120
100
AcDbEntity
8
0
100
AcDbPolyline
90
4
70
1
43
0.0
10
134.16469113015347
20
48.378077440667695
10
134.16469113015347
20
45.178077440667678
10
149.16469113015347
20
45.178077440667678
10
149.16469113015347
20
48.378077440667681
0
LWPOLYLINE
5
121
100
AcDbEntity
8
0
100
AcDbPolyline
90
5
70
1
43
0.0
10
203.16469003015357
20
103.37807634066758
10
203.16469003015357
20
97.378076340667576
10
203.16469003015357
20
91.378076340667576
10
206.36469003015355
20
91.378076340667576
10
206.36469003015355
20
103.37807634066758
0
LWPOLYLINE
5
122
100
AcDbEntity
8
0
100
AcDbPolyline
90
4
70
1
43
0.0
10
203.16469003015357
20
128.37807634066758
10
203.16469003015357
20
113.37807634066758
10
206.36469003015355
20
113.37807634066758
10
206.36469003015355
20
128.37807634066758
0
LWPOLYLINE
5
123
100
AcDbEntity
8
0
100
AcDbPolyline
90
4
70
1
43
0.0
10
203.16469003015357
20
66.37807634066759
10
203.16469003015357
20
81.37807634066759
10
206.36469003015355
20
81.37807634066759
10
206.36469003015355
20
66.37807634066759
0
LWPOLYLINE
5
124
100
AcDbEntity
8
0
100
AcDbPolyline
90
4
70
1
43
0.0
10
105.16469223015335
20
128.37807634066758
10
105.16469223015335
20
113.37807634066758
10
101.96469223015335
20
113.37807634066758
10
101.96469223015335
20
128.37807634066758
0
LWPOLYLINE
5
125
100
AcDbEntity
8
0
100
AcDbPolyline
90
4
70
1
43
0.0
10
105.16469223015335
20
66.37807634066759
10
105.16469223015335
20
81.37807634066759
10
101.96469223015335
20
81.37807634066759
10
101.96469223015335
20
66.37807634066759
0
LWPOLYLINE
5
126
100
AcDbEntity
8
0
100
AcDbPolyline
90
5
70
1
43
0.0
10
101.96469223015335
20
103.37807634066758
10
105.16469223015335
20
103.37807634066758
10
105.16469223015335
20
97.378076340667576
10
105.16469223015335
20
91.378076340667576
10
101.96469223015335
20
91.378076340667576
0
LWPOLYLINE
5
127
100
AcDbEntity
8
0
100
AcDbPolyline
90
4
70
1
43
0.0
10
124.16469113015346
20
149.57807524066743
10
109.16469113015346
20
149.57807524066743
10
109.16469113015346
20
146.37807524066744
10
124.16469113015346
20
146.37807524066744
0
LWPOLYLINE
5
128
100
AcDbEntity
8
0
100
AcDbPolyline
90
4
70
1
43
0.0
10
134.16469113015347
20
146.37807524066747
10
134.16469113015347
20
149.57807524066749
10
149.16469113015347
20
149.57807524066749
10
149.16469113015347
20
146.37807524066747
0
LWPOLYLINE
5
129
100
AcDbEntity
8
0
100
AcDbPolyline
90
4
70
1
43
0.0
10
174.16469113015347
20
146.37807524066747
10
174.16469113015347
20
149.57807524066749
10
159.16469113015347
20
149.57807524066749
10
159.16469113015347
20
146.37807524066747
0
LWPOLYLINE
5
130
100
AcDbEntity
8
0
100
AcDbPolyline
90
4
70
1
43
0.0
10
184.16469113015347
20
149.57807524066743
10
199.16469113015347
20
149.57807524066743
10
199.16469113015347
20
146.37807524066744
10
184.16469113015347
20
146.37807524066744
0
CIRCLE
5
131
100
AcDbEntity
8
0
100
AcDbCircle
10
85.364377790351668
20
132.37857334717663
30
0
40
2.5
210
0
220
0
230
1
0
CIRCLE
5
132
100
AcDbEntity
8
0
100
AcDbCircle
10
85.364377790351668
20
62.378573347176633
30
0
40
2.5
210
0
220
0
230
1
0
CIRCLE
5
133
100
AcDbEntity
8
0
100
AcDbCircle
10
222.96500446995523
20
132.37857334717663
30
0
40
2.5
210
0
220
0
230
1
0
CIRCLE
5
134
100
AcDbEntity
8
0
100
AcDbCircle
10
222.96500446995523
20
62.378573347176633
30
0
40
2.5
210
0
220
0
230
1
0
CIRCLE
5
135
100
AcDbEntity
8
0
100
AcDbCircle
10
157.67869223015344
20
139.83807524066745
30
0
40
1.499997
210
0
220
0
230
1
0
CIRCLE
5
136
100
AcDbEntity
8
0
100
AcDbCircle
10
115.38769223015372
20
57.415075240667619
30
0
40
1.499997
210
0
220
0
230
1
0
CIRCLE
5
137
100
AcDbEntity
8
0
100
AcDbCircle
10
192.09569223015339
20
57.034075240667725
30
0
40
1.499997
210
0
220
0
230
1
0
CIRCLE
5
138
100
AcDbEntity
8
0
100
AcDbCircle
10
108.71963635464613
20
142.48781557782979
30
0
40
2.5
210
0
220
0
230
1
0
CIRCLE
5
139
100
AcDbEntity
8
0
100
AcDbCircle
10
199.60911702605711
20
142.48781557782979
30
0
40
2.5
210
0
220
0
230
1
0
CIRCLE
5
140
100
AcDbEntity
8
0
100
AcDbCircle
10
108.71963635464613
20
52.269331116523468
30
0
40
2.5
210
0
220
0
230
1
0
CIRCLE
5
141
100
AcDbEntity
8
0
100
AcDbCircle
10
199.60911702605711
20
52.269331116523468
30
0
40
2.5
210
0
220
0
230
1
0
ENDSEC
0
SECTION
2
OBJECTS
0
DICTIONARY
5
C
100
AcDbDictionary
3
ACAD_GROUP
350
D
3
ACAD_MLINESTYLE
350
17
0
DICTIONARY
5
D
100
AcDbDictionary
0
DICTIONARY
5
1A
330
C
100
AcDbDictionary
0
DICTIONARY
5
17
100
AcDbDictionary
0
ENDSEC
0
EOF
