0
SECTION
2
HEADER
9
$INSUNITS
70
4
9
$ACADVER
1
AC1014
9
$HANDSEED
5
FFFF
0
ENDSEC
0
SECTION
2
TABLES
0
TABLE
2
VPORT
5
8
100
AcDbSymbolTable
0
ENDTAB
0
TABLE
2
LTYPE
5
5
100
AcDbSymbolTable
0
LTYPE
5
14
100
AcDbSymbolTableRecord
100
AcDbLinetypeTableRecord
2
BYBLOCK
70
0
0
LTYPE
5
15
100
AcDbSymbolTableRecord
100
AcDbLinetypeTableRecord
2
BYLAYER
70
0
0
ENDTAB
0
TABLE
2
LAYER
5
2
100
AcDbSymbolTable
70
2
0
LAYER
5
50
100
AcDbSymbolTableRecord
100
AcDbLayerTableRecord
2
0
70
0
6
CONTINUOUS
0
ENDTAB
0
TABLE
2
STYLE
5
3
100
AcDbSymbolTable
70
1
0
STYLE
5
11
100
AcDbSymbolTableRecord
100
AcDbTextStyleTableRecord
2
STANDARD
70
0
0
ENDTAB
0
TABLE
2
VIEW
5
6
100
AcDbSymbolTable
70
0
0
ENDTAB
0
TABLE
2
UCS
5
7
100
AcDbSymbolTable
70
0
0
ENDTAB
0
TABLE
2
APPID
5
9
100
AcDbSymbolTable
70
2
0
APPID
5
12
100
AcDbSymbolTableRecord
100
AcDbRegAppTableRecord
2
ACAD
70
0
0
ENDTAB
0
TABLE
2
DIMSTYLE
5
A
100
AcDbSymbolTable
70
1
0
ENDTAB
0
TABLE
2
BLOCK_RECORD
5
1
100
AcDbSymbolTable
70
1
0
BLOCK_RECORD
5
1F
100
AcDbSymbolTableRecord
100
AcDbBlockTableRecord
2
*MODEL_SPACE
0
BLOCK_RECORD
5
1B
100
AcDbSymbolTableRecord
100
AcDbBlockTableRecord
2
*PAPER_SPACE
0
ENDTAB
0
ENDSEC
0
SECTION
2
BLOCKS
0
BLOCK
5
20
100
AcDbEntity
100
AcDbBlockBegin
2
*MODEL_SPACE
0
ENDBLK
5
21
100
AcDbEntity
100
AcDbBlockEnd
0
BLOCK
5
1C
100
AcDbEntity
100
AcDbBlockBegin
2
*PAPER_SPACE
0
ENDBLK
5
1D
100
AcDbEntity
100
AcDbBlockEnd
0
ENDSEC
0
SECTION
2
ENTITIES
0
LWPOLYLINE
5
100
100
AcDbEntity
8
0
100
AcDbPolyline
90
44
70
1
43
0.0
10
29.08648003846594
20
202.67811171521095
10
29.08648003846594
20
187.67811281521119
10
25.886480038465937
20
187.67811281521119
10
25.886480038465937
20
177.67811281521119
10
29.08648003846594
20
177.67811281521119
10
29.08648003846594
20
162.6781139152115
10
25.886480038465937
20
162.6781139152115
10
25.886480038466008
20
142.67811391521155
10
29.086480038466011
20
142.67811391521155
10
29.086480038465723
20
127.27811391521165
10
36.266480038465723
20
127.27811391521165
10
36.266480038465723
20
124.07811391521165
10
48.266480038465723
20
124.07811391521165
10
48.266480038465723
20
127.27811391521165
10
55.346480038465728
20
127.27811391521165
10
55.346480038465728
20
124.07811391521165
10
67.346480038465728
20
124.07811391521165
10
67.346480038465728
20
127.27811391521165
10
77.346480038465728
20
127.27811391521165
10
77.346480038465842
20
137.67811391521164
10
80.546480038465802
20
137.67811391521164
10
80.546480038465802
20
147.67811391521155
10
77.346480038465756
20
147.67811931521152
10
77.346480038465842
20
167.47811281521132
10
80.546480038465802
20
167.47811281521132
10
80.546480038465731
20
197.87811281521115
10
77.346480038465756
20
197.87811281521115
10
77.346480038465657
20
217.67810631521093
10
80.546480038465688
20
217.67811171521089
10
80.546480038465688
20
227.67811171521089
10
77.346480038465728
20
227.67811171521089
10
77.346480038465728
20
238.07811171521081
10
67.346480038465728
20
238.07811171521081
10
67.346480038465728
20
241.2781117152108
10
55.346480038465728
20
241.2781117152108
10
55.346480038465728
20
238.07811171521081
10
48.266480038465723
20
238.07811171521081
10
48.266480038465723
20
241.2781117152108
10
36.266480038465723
20
241.2781117152108
10
36.266480038465723
20
238.07811171521081
10
29.086480038465723
20
238.07811171521081
10
29.086480038465798
20
222.67811171521083
10
25.886480038465866
20
222.67811171521083
10
25.886480038465937
20
202.67811171521095
0
ENDSEC
0
SECTION
2
OBJECTS
0
DICTIONARY
5
C
100
AcDbDictionary
3
ACAD_GROUP
350
D
3
ACAD_MLINESTYLE
350
17
0
DICTIONARY
5
D
100
AcDbDictionary
0
DICTIONARY
5
1A
330
C
100
AcDbDictionary
0
DICTIONARY
5
17
100
AcDbDictionary
0
ENDSEC
0
EOF
