0
SECTION
2
HEADER
9
$INSUNITS
70
4
9
$ACADVER
1
AC1014
9
$HANDSEED
5
FFFF
0
ENDSEC
0
SECTION
2
TABLES
0
TABLE
2
VPORT
5
8
100
AcDbSymbolTable
0
ENDTAB
0
TABLE
2
LTYPE
5
5
100
AcDbSymbolTable
0
LTYPE
5
14
100
AcDbSymbolTableRecord
100
AcDbLinetypeTableRecord
2
BYBLOCK
70
0
0
LTYPE
5
15
100
AcDbSymbolTableRecord
100
AcDbLinetypeTableRecord
2
BYLAYER
70
0
0
ENDTAB
0
TABLE
2
LAYER
5
2
100
AcDbSymbolTable
70
2
0
LAYER
5
50
100
AcDbSymbolTableRecord
100
AcDbLayerTableRecord
2
0
70
0
6
CONTINUOUS
0
ENDTAB
0
TABLE
2
STYLE
5
3
100
AcDbSymbolTable
70
1
0
STYLE
5
11
100
AcDbSymbolTableRecord
100
AcDbTextStyleTableRecord
2
STANDARD
70
0
0
ENDTAB
0
TABLE
2
VIEW
5
6
100
AcDbSymbolTable
70
0
0
ENDTAB
0
TABLE
2
UCS
5
7
100
AcDbSymbolTable
70
0
0
ENDTAB
0
TABLE
2
APPID
5
9
100
AcDbSymbolTable
70
2
0
APPID
5
12
100
AcDbSymbolTableRecord
100
AcDbRegAppTableRecord
2
ACAD
70
0
0
ENDTAB
0
TABLE
2
DIMSTYLE
5
A
100
AcDbSymbolTable
70
1
0
ENDTAB
0
TABLE
2
BLOCK_RECORD
5
1
100
AcDbSymbolTable
70
1
0
BLOCK_RECORD
5
1F
100
AcDbSymbolTableRecord
100
AcDbBlockTableRecord
2
*MODEL_SPACE
0
BLOCK_RECORD
5
1B
100
AcDbSymbolTableRecord
100
AcDbBlockTableRecord
2
*PAPER_SPACE
0
ENDTAB
0
ENDSEC
0
SECTION
2
BLOCKS
0
BLOCK
5
20
100
AcDbEntity
100
AcDbBlockBegin
2
*MODEL_SPACE
0
ENDBLK
5
21
100
AcDbEntity
100
AcDbBlockEnd
0
BLOCK
5
1C
100
AcDbEntity
100
AcDbBlockBegin
2
*PAPER_SPACE
0
ENDBLK
5
1D
100
AcDbEntity
100
AcDbBlockEnd
0
ENDSEC
0
SECTION
2
ENTITIES
0
LWPOLYLINE
5
100
100
AcDbEntity
8
0
100
AcDbPolyline
90
4
70
1
43
0.0
10
94.467842410194663
20
-36.0734426245142
10
97.66784241019451
20
-36.073443328514117
10
97.667845050193307
20
-24.073443328514372
10
94.46784505019339
20
-24.07344262451474
0
LWPOLYLINE
5
101
100
AcDbEntity
8
0
100
AcDbPolyline
90
24
70
1
43
0.0
10
170.56782997019656
20
-13.693440336515295
10
195.56782997019653
20
-13.693440336515224
10
195.56782997019653
20
-16.893440336515155
10
222.06783223299951
20
-16.893440336516221
10
222.06784285019395
20
-65.153440336515047
10
203.06782997019639
20
-65.153440336515132
10
203.06782997019639
20
-68.353440336515092
10
188.06782997019656
20
-68.353440336515092
10
188.06782997019656
20
-65.153440336515132
10
168.0678364701966
20
-65.153440336515132
10
168.0678364701966
20
-68.353440336515092
10
138.06783647019688
20
-68.353440336515092
10
138.06783647019688
20
-65.153440336515132
10
118.06784297019695
20
-65.153440336515132
10
118.06784297019695
20
-68.353440336515092
10
103.06784297019703
20
-68.353440336515092
10
103.06784297019703
20
-65.153440336515132
10
84.067837570197185
20
-65.153440336515047
10
84.067837570197369
20
-16.893440336515049
10
110.56784297019703
20
-16.893440336515226
10
110.56784297019639
20
-13.693440336515224
10
135.5678429701963
20
-13.693440336515081
10
135.56784297019692
20
-16.893440336515297
10
170.56782997019656
20
-16.893440336515297
0
LWPOLYLINE
5
102
100
AcDbEntity
8
0
100
AcDbPolyline
90
4
70
1
43
0.0
10
211.66783317019764
20
-55.153442624514177
10
211.6678305301989
20
-43.153442624514611
10
208.46783053019897
20
-43.153443328514385
10
208.46783317019776
20
-55.15344332851388
0
LWPOLYLINE
5
103
100
AcDbEntity
8
0
100
AcDbPolyline
90
4
70
1
43
0.0
10
97.66784241019451
20
-43.153443328514385
10
97.667839770195712
20
-55.15344332851388
10
94.467839770195866
20
-55.153442624514177
10
94.467842410194592
20
-43.153442624514611
0
LWPOLYLINE
5
104
100
AcDbEntity
8
0
100
AcDbPolyline
90
4
70
1
43
0.0
10
211.66783053019884
20
-36.0734426245142
10
211.6678278902001
20
-24.07344262451474
10
208.46782789020017
20
-24.073443328514372
10
208.46783053019897
20
-36.073443328514117
0
LWPOLYLINE
5
105
100
AcDbEntity
8
0
100
AcDbPolyline
90
8
70
1
43
0.0
10
168.31270819209601
20
-29.988602018542267
10
137.82296474829744
20
-29.988602018542259
42
0.41421356237309348
10
132.82296474829747
20
-34.988602018542259
10
132.82296474829744
20
-49.988602018542267
42
0.41421356237309398
10
137.82296474829747
20
-54.988602018542267
10
168.31270819209601
20
-54.988602018542245
42
0.41421356237309398
10
173.31270819209601
20
-49.988602018542267
10
173.31270819209601
20
-34.988602018542259
42
0.41421356237309453
0
ENDSEC
0
SECTION
2
OBJECTS
0
DICTIONARY
5
C
100
AcDbDictionary
3
ACAD_GROUP
350
D
3
ACAD_MLINESTYLE
350
17
0
DICTIONARY
5
D
100
AcDbDictionary
0
DICTIONARY
5
1A
330
C
100
AcDbDictionary
0
DICTIONARY
5
17
100
AcDbDictionary
0
ENDSEC
0
EOF
