0
SECTION
2
HEADER
9
$INSUNITS
70
4
9
$ACADVER
1
AC1014
9
$HANDSEED
5
FFFF
0
ENDSEC
0
SECTION
2
TABLES
0
TABLE
2
VPORT
5
8
100
AcDbSymbolTable
0
ENDTAB
0
TABLE
2
LTYPE
5
5
100
AcDbSymbolTable
0
LTYPE
5
14
100
AcDbSymbolTableRecord
100
AcDbLinetypeTableRecord
2
BYBLOCK
70
0
0
LTYPE
5
15
100
AcDbSymbolTableRecord
100
AcDbLinetypeTableRecord
2
BYLAYER
70
0
0
ENDTAB
0
TABLE
2
LAYER
5
2
100
AcDbSymbolTable
70
2
0
LAYER
5
50
100
AcDbSymbolTableRecord
100
AcDbLayerTableRecord
2
0
70
0
6
CONTINUOUS
0
ENDTAB
0
TABLE
2
STYLE
5
3
100
AcDbSymbolTable
70
1
0
STYLE
5
11
100
AcDbSymbolTableRecord
100
AcDbTextStyleTableRecord
2
STANDARD
70
0
0
ENDTAB
0
TABLE
2
VIEW
5
6
100
AcDbSymbolTable
70
0
0
ENDTAB
0
TABLE
2
UCS
5
7
100
AcDbSymbolTable
70
0
0
ENDTAB
0
TABLE
2
APPID
5
9
100
AcDbSymbolTable
70
2
0
APPID
5
12
100
AcDbSymbolTableRecord
100
AcDbRegAppTableRecord
2
ACAD
70
0
0
ENDTAB
0
TABLE
2
DIMSTYLE
5
A
100
AcDbSymbolTable
70
1
0
ENDTAB
0
TABLE
2
BLOCK_RECORD
5
1
100
AcDbSymbolTable
70
1
0
BLOCK_RECORD
5
1F
100
AcDbSymbolTableRecord
100
AcDbBlockTableRecord
2
*MODEL_SPACE
0
BLOCK_RECORD
5
1B
100
AcDbSymbolTableRecord
100
AcDbBlockTableRecord
2
*PAPER_SPACE
0
ENDTAB
0
ENDSEC
0
SECTION
2
BLOCKS
0
BLOCK
5
20
100
AcDbEntity
100
AcDbBlockBegin
2
*MODEL_SPACE
0
ENDBLK
5
21
100
AcDbEntity
100
AcDbBlockEnd
0
BLOCK
5
1C
100
AcDbEntity
100
AcDbBlockBegin
2
*PAPER_SPACE
0
ENDBLK
5
1D
100
AcDbEntity
100
AcDbBlockEnd
0
ENDSEC
0
SECTION
2
ENTITIES
0
LWPOLYLINE
5
100
100
AcDbEntity
8
0
100
AcDbPolyline
90
24
70
1
43
0.0
10
135.5678429701963
20
266.3065596634849
10
110.56784297019639
20
266.30655966348479
10
110.56784297019703
20
263.10655966348475
10
84.067837570197369
20
263.10655966348497
10
84.067837570197185
20
214.84655966348495
10
103.06784297019703
20
214.84655966348487
10
103.06784297019703
20
211.64655966348491
10
118.06784297019695
20
211.64655966348491
10
118.06784297019695
20
214.84655966348487
10
138.06783647019688
20
214.84655966348487
10
138.06783647019688
20
211.64655966348491
10
168.0678364701966
20
211.64655966348491
10
168.0678364701966
20
214.84655966348487
10
188.06782997019656
20
214.84655966348487
10
188.06782997019656
20
211.64655966348491
10
203.06782997019639
20
211.64655966348491
10
203.06782997019639
20
214.84655966348487
10
222.06784285019395
20
214.84655966348495
10
222.06783223299951
20
263.10655966348378
10
195.56782997019653
20
263.10655966348486
10
195.56782997019653
20
266.30655966348479
10
170.56782997019656
20
266.30655966348468
10
170.56782997019656
20
263.10655966348469
10
135.56784297019692
20
263.10655966348469
0
LWPOLYLINE
5
101
100
AcDbEntity
8
0
100
AcDbPolyline
90
4
70
1
43
0.0
10
94.467839770195866
20
224.84655737548582
10
97.667839770195712
20
224.84655667148613
10
97.66784241019451
20
236.84655667148562
10
94.467842410194592
20
236.84655737548539
0
LWPOLYLINE
5
102
100
AcDbEntity
8
0
100
AcDbPolyline
90
4
70
1
43
0.0
10
94.467842410194663
20
243.9265573754858
10
97.66784241019451
20
243.92655667148588
10
97.667845050193307
20
255.92655667148563
10
94.46784505019339
20
255.92655737548526
0
LWPOLYLINE
5
103
100
AcDbEntity
8
0
100
AcDbPolyline
90
4
70
1
43
0.0
10
211.66783053019884
20
243.9265573754858
10
211.6678278902001
20
255.92655737548526
10
208.46782789020017
20
255.92655667148563
10
208.46783053019897
20
243.92655667148588
0
LWPOLYLINE
5
104
100
AcDbEntity
8
0
100
AcDbPolyline
90
4
70
1
43
0.0
10
211.66783317019764
20
224.84655737548582
10
211.6678305301989
20
236.84655737548539
10
208.46783053019897
20
236.84655667148562
10
208.46783317019776
20
224.84655667148613
0
ENDSEC
0
SECTION
2
OBJECTS
0
DICTIONARY
5
C
100
AcDbDictionary
3
ACAD_GROUP
350
D
3
ACAD_MLINESTYLE
350
17
0
DICTIONARY
5
D
100
AcDbDictionary
0
DICTIONARY
5
1A
330
C
100
AcDbDictionary
0
DICTIONARY
5
17
100
AcDbDictionary
0
ENDSEC
0
EOF
