0
SECTION
2
HEADER
9
$INSUNITS
70
4
9
$ACADVER
1
AC1014
9
$HANDSEED
5
FFFF
0
ENDSEC
0
SECTION
2
TABLES
0
TABLE
2
VPORT
5
8
100
AcDbSymbolTable
0
ENDTAB
0
TABLE
2
LTYPE
5
5
100
AcDbSymbolTable
0
LTYPE
5
14
100
AcDbSymbolTableRecord
100
AcDbLinetypeTableRecord
2
BYBLOCK
70
0
0
LTYPE
5
15
100
AcDbSymbolTableRecord
100
AcDbLinetypeTableRecord
2
BYLAYER
70
0
0
ENDTAB
0
TABLE
2
LAYER
5
2
100
AcDbSymbolTable
70
2
0
LAYER
5
50
100
AcDbSymbolTableRecord
100
AcDbLayerTableRecord
2
0
70
0
6
CONTINUOUS
0
ENDTAB
0
TABLE
2
STYLE
5
3
100
AcDbSymbolTable
70
1
0
STYLE
5
11
100
AcDbSymbolTableRecord
100
AcDbTextStyleTableRecord
2
STANDARD
70
0
0
ENDTAB
0
TABLE
2
VIEW
5
6
100
AcDbSymbolTable
70
0
0
ENDTAB
0
TABLE
2
UCS
5
7
100
AcDbSymbolTable
70
0
0
ENDTAB
0
TABLE
2
APPID
5
9
100
AcDbSymbolTable
70
2
0
APPID
5
12
100
AcDbSymbolTableRecord
100
AcDbRegAppTableRecord
2
ACAD
70
0
0
ENDTAB
0
TABLE
2
DIMSTYLE
5
A
100
AcDbSymbolTable
70
1
0
ENDTAB
0
TABLE
2
BLOCK_RECORD
5
1
100
AcDbSymbolTable
70
1
0
BLOCK_RECORD
5
1F
100
AcDbSymbolTableRecord
100
AcDbBlockTableRecord
2
*MODEL_SPACE
0
BLOCK_RECORD
5
1B
100
AcDbSymbolTableRecord
100
AcDbBlockTableRecord
2
*PAPER_SPACE
0
ENDTAB
0
ENDSEC
0
SECTION
2
BLOCKS
0
BLOCK
5
20
100
AcDbEntity
100
AcDbBlockBegin
2
*MODEL_SPACE
0
ENDBLK
5
21
100
AcDbEntity
100
AcDbBlockEnd
0
BLOCK
5
1C
100
AcDbEntity
100
AcDbBlockBegin
2
*PAPER_SPACE
0
ENDBLK
5
1D
100
AcDbEntity
100
AcDbBlockEnd
0
ENDSEC
0
SECTION
2
ENTITIES
0
LWPOLYLINE
5
100
100
AcDbEntity
8
0
100
AcDbPolyline
90
62
70
1
43
0.0
10
-118.03530776984665
20
103.37807634066758
10
-114.83530776984665
20
103.37807634066758
10
-114.83530776984665
20
97.378076340667576
10
-114.83530776984665
20
91.378076340667576
10
-118.03530776984665
20
91.378076340667576
10
-118.03530776984665
20
81.37807634066759
10
-114.83530776984665
20
81.37807634066759
10
-114.83530776984665
20
66.37807634066759
10
-118.03530776984665
20
66.37807634066759
10
-118.03530776984665
20
45.178077440667728
10
-110.83530886984654
20
45.178077440667728
10
-110.83530886984654
20
48.378077440667731
10
-95.835308869846543
20
48.378077440667717
10
-95.835308869846543
20
45.178077440667728
10
-85.835308869846543
20
45.178077440667678
10
-85.835308869846543
20
48.378077440667695
10
-70.835308869846543
20
48.378077440667681
10
-70.835308869846543
20
45.178077440667678
10
-60.835308869846543
20
45.178077440667678
10
-60.835308869846543
20
48.378077440667681
10
-45.835308869846543
20
48.378077440667695
10
-45.835308869846543
20
45.178077440667678
10
-35.835308869846543
20
45.178077440667728
10
-35.835308869846543
20
48.378077440667717
10
-20.835308869846543
20
48.378077440667731
10
-20.835308869846543
20
45.178077440667728
10
-13.635309969846432
20
45.178077440667728
10
-13.635309969846432
20
66.37807634066759
10
-16.835309969846435
20
66.37807634066759
10
-16.835309969846435
20
81.37807634066759
10
-13.635309969846432
20
81.37807634066759
10
-13.635309969846432
20
91.378076340667576
10
-16.835309969846435
20
91.378076340667576
10
-16.835309969846435
20
97.378076340667576
10
-16.835309969846435
20
103.37807634066758
10
-13.635309969846432
20
103.37807634066758
10
-13.635309969846432
20
113.37807634066758
10
-16.835309969846435
20
113.37807634066758
10
-16.835309969846435
20
128.37807634066758
10
-13.635309969846432
20
128.37807634066758
10
-13.635309969846432
20
149.57807524066743
10
-20.835308869846543
20
149.57807524066743
10
-20.835308869846543
20
146.37807524066744
10
-35.835308869846543
20
146.37807524066744
10
-35.835308869846543
20
149.57807524066743
10
-45.835308869846543
20
149.57807524066749
10
-45.835308869846543
20
146.37807524066747
10
-60.835308869846543
20
146.37807524066747
10
-60.835308869846543
20
149.57807524066749
10
-70.835308869846543
20
149.57807524066749
10
-70.835308869846543
20
146.37807524066747
10
-85.835308869846543
20
146.37807524066747
10
-85.835308869846543
20
149.57807524066749
10
-95.835308869846543
20
149.57807524066743
10
-95.835308869846543
20
146.37807524066744
10
-110.83530886984654
20
146.37807524066744
10
-110.83530886984654
20
149.57807524066743
10
-118.03530776984665
20
149.57807524066743
10
-118.03530776984665
20
128.37807634066758
10
-114.83530776984665
20
128.37807634066758
10
-114.83530776984665
20
113.37807634066758
10
-118.03530776984665
20
113.37807634066758
0
CIRCLE
5
101
100
AcDbEntity
8
0
100
AcDbCircle
10
-111.28036364535387
20
142.48781557782979
30
0
40
2.5
210
0
220
0
230
1
0
CIRCLE
5
102
100
AcDbEntity
8
0
100
AcDbCircle
10
-20.390882973942901
20
142.48781557782979
30
0
40
2.5
210
0
220
0
230
1
0
CIRCLE
5
103
100
AcDbEntity
8
0
100
AcDbCircle
10
-20.390882973942901
20
52.269331116523468
30
0
40
2.5
210
0
220
0
230
1
0
CIRCLE
5
104
100
AcDbEntity
8
0
100
AcDbCircle
10
-111.28036364535387
20
52.269331116523468
30
0
40
2.5
210
0
220
0
230
1
0
CIRCLE
5
105
100
AcDbEntity
8
0
100
AcDbCircle
10
-104.61230776984628
20
57.415075240667619
30
0
40
1.499997
210
0
220
0
230
1
0
CIRCLE
5
106
100
AcDbEntity
8
0
100
AcDbCircle
10
-62.321307769846541
20
139.83807524066745
30
0
40
1.499997
210
0
220
0
230
1
0
CIRCLE
5
107
100
AcDbEntity
8
0
100
AcDbCircle
10
-27.904307769846604
20
57.034075240667725
30
0
40
1.499997
210
0
220
0
230
1
0
CIRCLE
5
108
100
AcDbEntity
8
0
100
AcDbCircle
10
-76.680748336970254
20
111.61703050605058
30
0
40
1.4999999999999967
210
0
220
0
230
1
0
LWPOLYLINE
5
109
100
AcDbEntity
8
0
100
AcDbPolyline
90
4
70
1
43
0.0
10
-59.930748336970325
20
110.34703050605067
10
-59.930748336970325
20
112.88703050605065
10
-69.930748336970225
20
112.88703050605058
10
-69.930748336970296
20
110.34703050605067
0
CIRCLE
5
110
100
AcDbEntity
8
0
100
AcDbCircle
10
-53.180748336970225
20
87.817030506050628
30
0
40
1.4999999999999967
210
0
220
0
230
1
0
CIRCLE
5
111
100
AcDbEntity
8
0
100
AcDbCircle
10
-76.680748336970254
20
87.817030506050614
30
0
40
1.4999999999999967
210
0
220
0
230
1
0
CIRCLE
5
112
100
AcDbEntity
8
0
100
AcDbCircle
10
-53.180748336970225
20
111.61703050605061
30
0
40
1.4999999999999967
210
0
220
0
230
1
0
ENDSEC
0
SECTION
2
OBJECTS
0
DICTIONARY
5
C
100
AcDbDictionary
3
ACAD_GROUP
350
D
3
ACAD_MLINESTYLE
350
17
0
DICTIONARY
5
D
100
AcDbDictionary
0
DICTIONARY
5
1A
330
C
100
AcDbDictionary
0
DICTIONARY
5
17
100
AcDbDictionary
0
ENDSEC
0
EOF
