0
SECTION
2
HEADER
9
$INSUNITS
70
4
9
$ACADVER
1
AC1014
9
$HANDSEED
5
FFFF
0
ENDSEC
0
SECTION
2
TABLES
0
TABLE
2
VPORT
5
8
100
AcDbSymbolTable
0
ENDTAB
0
TABLE
2
LTYPE
5
5
100
AcDbSymbolTable
0
LTYPE
5
14
100
AcDbSymbolTableRecord
100
AcDbLinetypeTableRecord
2
BYBLOCK
70
0
0
LTYPE
5
15
100
AcDbSymbolTableRecord
100
AcDbLinetypeTableRecord
2
BYLAYER
70
0
0
ENDTAB
0
TABLE
2
LAYER
5
2
100
AcDbSymbolTable
70
2
0
LAYER
5
50
100
AcDbSymbolTableRecord
100
AcDbLayerTableRecord
2
0
70
0
6
CONTINUOUS
0
ENDTAB
0
TABLE
2
STYLE
5
3
100
AcDbSymbolTable
70
1
0
STYLE
5
11
100
AcDbSymbolTableRecord
100
AcDbTextStyleTableRecord
2
STANDARD
70
0
0
ENDTAB
0
TABLE
2
VIEW
5
6
100
AcDbSymbolTable
70
0
0
ENDTAB
0
TABLE
2
UCS
5
7
100
AcDbSymbolTable
70
0
0
ENDTAB
0
TABLE
2
APPID
5
9
100
AcDbSymbolTable
70
2
0
APPID
5
12
100
AcDbSymbolTableRecord
100
AcDbRegAppTableRecord
2
ACAD
70
0
0
ENDTAB
0
TABLE
2
DIMSTYLE
5
A
100
AcDbSymbolTable
70
1
0
ENDTAB
0
TABLE
2
BLOCK_RECORD
5
1
100
AcDbSymbolTable
70
1
0
BLOCK_RECORD
5
1F
100
AcDbSymbolTableRecord
100
AcDbBlockTableRecord
2
*MODEL_SPACE
0
BLOCK_RECORD
5
1B
100
AcDbSymbolTableRecord
100
AcDbBlockTableRecord
2
*PAPER_SPACE
0
ENDTAB
0
ENDSEC
0
SECTION
2
BLOCKS
0
BLOCK
5
20
100
AcDbEntity
100
AcDbBlockBegin
2
*MODEL_SPACE
0
ENDBLK
5
21
100
AcDbEntity
100
AcDbBlockEnd
0
BLOCK
5
1C
100
AcDbEntity
100
AcDbBlockBegin
2
*PAPER_SPACE
0
ENDBLK
5
1D
100
AcDbEntity
100
AcDbBlockEnd
0
ENDSEC
0
SECTION
2
ENTITIES
0
LWPOLYLINE
5
100
100
AcDbEntity
8
0
100
AcDbPolyline
90
4
70
1
43
0.0
10
654.3000960289703
20
89.220427959812383
10
651.10009602897037
20
89.220427959812383
10
651.10009602897037
20
99.220427959812383
10
654.3000960289703
20
99.220427959812383
0
LWPOLYLINE
5
101
100
AcDbEntity
8
0
100
AcDbPolyline
90
4
70
1
43
0.0
10
553.20010630335048
20
152.82043038732215
10
553.20010630335048
20
149.62043038732216
10
578.20010630335048
20
149.62043038732216
10
578.20010630335048
20
152.82043038732215
0
LWPOLYLINE
5
102
100
AcDbEntity
8
0
100
AcDbPolyline
90
4
70
1
43
0.0
10
540.30009822896818
20
114.22042419981682
10
537.10009822896825
20
114.22042419981682
10
537.10009822896825
20
134.22042419981682
10
540.30009822896818
20
134.22042419981682
0
LWPOLYLINE
5
103
100
AcDbEntity
8
0
100
AcDbPolyline
90
4
70
1
43
0.0
10
654.30009602897258
20
114.22042419981682
10
654.30009602897258
20
134.22042419981682
10
651.10009602897253
20
134.22042419981682
10
651.10009602897253
20
114.22042419981682
0
LWPOLYLINE
5
104
100
AcDbEntity
8
0
100
AcDbPolyline
90
4
70
1
43
0.0
10
613.20010630335048
20
149.62043038732216
10
638.20010630335048
20
149.62043038732216
10
638.20010630335048
20
152.82043038732215
10
613.20010630335048
20
152.82043038732215
0
CIRCLE
5
105
100
AcDbEntity
8
0
100
AcDbCircle
10
630.20009000443326
20
176.95042917356727
30
0
40
2.5000000000000329
210
0
220
0
230
1
0
LWPOLYLINE
5
106
100
AcDbEntity
8
0
100
AcDbPolyline
90
4
70
1
43
0.0
10
578.20010630335048
20
38.8204255323026
10
553.20010630335048
20
38.8204255323026
10
553.20010630335048
20
35.620425532302598
10
578.20010630335048
20
35.620425532302598
0
LWPOLYLINE
5
107
100
AcDbEntity
8
0
100
AcDbPolyline
90
4
70
1
43
0.0
10
540.30009822896818
20
74.22043171980792
10
537.10009822896825
20
74.22043171980792
10
537.10009822896825
20
54.220431719807927
10
540.30009822896818
20
54.220431719807927
0
LWPOLYLINE
5
108
100
AcDbEntity
8
0
100
AcDbPolyline
90
4
70
1
43
0.0
10
674.70009602897017
20
201.08043038732222
10
674.70009602897017
20
-12.639569612685719
10
516.70015645985086
20
-12.639607212620092
10
516.70009822897043
20
201.08039278737198
0
CIRCLE
5
109
100
AcDbEntity
8
0
100
AcDbCircle
10
561.20010425350745
20
11.490426746057487
30
0
40
2.5000000000000329
210
0
220
0
230
1
0
LWPOLYLINE
5
110
100
AcDbEntity
8
0
100
AcDbPolyline
90
4
70
1
43
0.0
10
537.10009822897041
20
89.220427959812383
10
540.30009822897046
20
89.220427959812383
10
540.30009822897046
20
99.220427959812383
10
537.10009822897041
20
99.220427959812383
0
LWPOLYLINE
5
111
100
AcDbEntity
8
0
100
AcDbPolyline
90
4
70
1
43
0.0
10
613.20010630335048
20
38.8204255323026
10
613.20010630335048
20
35.620425532302598
10
638.20010630335048
20
35.620425532302598
10
638.20010630335048
20
38.8204255323026
0
LWPOLYLINE
5
112
100
AcDbEntity
8
0
100
AcDbPolyline
90
4
70
1
43
0.0
10
651.10009602897253
20
74.22043171980792
10
654.30009602897258
20
74.22043171980792
10
654.30009602897258
20
54.220431719807927
10
651.10009602897253
20
54.220431719807927
0
CIRCLE
5
113
100
AcDbEntity
8
0
100
AcDbCircle
10
630.20009000443326
20
11.490426746057487
30
0
40
2.5000000000000329
210
0
220
0
230
1
0
CIRCLE
5
114
100
AcDbEntity
8
0
100
AcDbCircle
10
561.20010425350745
20
176.95042917356727
30
0
40
2.5000000000000329
210
0
220
0
230
1
0
CIRCLE
5
115
100
AcDbEntity
8
0
100
AcDbCircle
10
526.9000524417379
20
129.22041037354214
30
0
40
2.4999999999999871
210
0
220
0
230
1
0
CIRCLE
5
116
100
AcDbEntity
8
0
100
AcDbCircle
10
526.90017313164299
20
59.22041037364616
30
0
40
2.4999999999999871
210
0
220
0
230
1
0
CIRCLE
5
117
100
AcDbEntity
8
0
100
AcDbCircle
10
664.50002112629761
20
59.22041037364616
30
0
40
2.4999999999999871
210
0
220
0
230
1
0
CIRCLE
5
118
100
AcDbEntity
8
0
100
AcDbCircle
10
664.50014181620281
20
129.22041037354214
30
0
40
2.4999999999999871
210
0
220
0
230
1
0
ENDSEC
0
SECTION
2
OBJECTS
0
DICTIONARY
5
C
100
AcDbDictionary
3
ACAD_GROUP
350
D
3
ACAD_MLINESTYLE
350
17
0
DICTIONARY
5
D
100
AcDbDictionary
0
DICTIONARY
5
1A
330
C
100
AcDbDictionary
0
DICTIONARY
5
17
100
AcDbDictionary
0
ENDSEC
0
EOF
